# Blender v3.0.0 OBJ File: 'Biljart_Table.blend'
# www.blender.org
mtllib Biljart_cloth.mtl
o Doek_Cube.002
v -2.000000 1.979770 2.557772
v -1.705181 1.979770 3.000000
v -1.960502 1.979770 2.778886
v -1.852591 1.979770 2.940753
v -1.705181 1.979770 -3.000000
v -2.000000 1.979770 -2.557772
v -1.852591 1.979770 -2.940753
v -1.960502 1.979770 -2.778886
v 1.705181 1.979770 3.000000
v 2.000000 1.979770 2.557772
v 1.852591 1.979770 2.940753
v 1.960502 1.979770 2.778886
v 2.000000 1.979770 -2.557772
v 1.705181 1.979770 -3.000000
v 1.960502 1.979770 -2.778886
v 1.852591 1.979770 -2.940753
v -1.705181 1.999770 3.000000
v -1.852591 1.999770 2.940753
v -1.960502 1.999770 2.778886
v -2.000000 1.999770 2.557772
v -1.852591 1.999770 -2.940753
v -1.705181 1.999770 -3.000000
v -1.960502 1.999770 -2.778886
v -2.000000 1.999770 -2.557772
v 1.960502 1.999770 -2.778886
v 2.000000 1.999770 -2.557772
v 1.852591 1.999770 -2.940753
v 1.705181 1.999770 -3.000000
v 1.852591 1.999770 2.940753
v 1.705181 1.999770 3.000000
v 1.960502 1.999770 2.778886
v 2.000000 1.999770 2.557772
vt 0.003941 0.088116
vt 0.003941 0.920054
vt 0.013576 0.956014
vt 0.039901 0.982338
vt 0.075861 0.991974
vt 0.907800 0.991974
vt 0.943759 0.982338
vt 0.970084 0.956014
vt 0.979719 0.920054
vt 0.979719 0.088116
vt 0.970084 0.052156
vt 0.943759 0.025831
vt 0.907800 0.016196
vt 0.075861 0.016196
vt 0.039901 0.025831
vt 0.013576 0.052156
vt 0.003941 0.088116
vt 0.013576 0.052156
vt 0.039901 0.025831
vt 0.075861 0.016196
vt 0.907800 0.016196
vt 0.943759 0.025831
vt 0.970084 0.052156
vt 0.979719 0.088116
vt 0.979719 0.920054
vt 0.970084 0.956014
vt 0.943759 0.982338
vt 0.907800 0.991974
vt 0.075861 0.991974
vt 0.039901 0.982338
vt 0.013576 0.956014
vt 0.003941 0.920054
vn 0.0000 -1.0000 0.0000
vn 0.0000 1.0000 -0.0000
vn -0.3729 0.0000 0.9279
vn 0.0000 0.0000 -1.0000
vn 0.3729 0.0000 -0.9279
vn -0.8320 0.0000 0.5547
vn 0.3729 0.0000 0.9279
vn -0.9844 0.0000 0.1758
vn 0.8320 0.0000 0.5547
vn -0.3729 0.0000 -0.9279
vn 0.9844 0.0000 0.1758
vn -0.8320 0.0000 -0.5547
vn 0.0000 0.0000 1.0000
vn -0.9844 0.0000 -0.1758
vn -1.0000 0.0000 0.0000
vn 0.9844 0.0000 -0.1758
vn 1.0000 0.0000 0.0000
vn 0.8320 0.0000 -0.5547
usemtl Material.001
s off
f 13/1/1 10/2/1 12/3/1 11/4/1 9/5/1 2/6/1 4/7/1 3/8/1 1/9/1 6/10/1 8/11/1 7/12/1 5/13/1 14/14/1 16/15/1 15/16/1
f 26/17/2 25/18/2 27/19/2 28/20/2 22/21/2 21/22/2 23/23/2 24/24/2 20/25/2 19/26/2 18/27/2 17/28/2 30/29/2 29/30/2 31/31/2 32/32/2
f 4/7/3 2/6/3 17/28/3 18/27/3
f 14/14/4 5/13/4 22/21/4 28/20/4
f 16/15/5 14/14/5 28/20/5 27/19/5
f 3/8/6 4/7/6 18/27/6 19/26/6
f 9/5/7 11/4/7 29/30/7 30/29/7
f 1/9/8 3/8/8 19/26/8 20/25/8
f 11/4/9 12/3/9 31/31/9 29/30/9
f 5/13/10 7/12/10 21/22/10 22/21/10
f 12/3/11 10/2/11 32/32/11 31/31/11
f 7/12/12 8/11/12 23/23/12 21/22/12
f 2/6/13 9/5/13 30/29/13 17/28/13
f 8/11/14 6/10/14 24/24/14 23/23/14
f 6/10/15 1/9/15 20/25/15 24/24/15
f 13/1/16 15/16/16 25/18/16 26/17/16
f 10/2/17 13/1/17 26/17/17 32/32/17
f 15/16/18 16/15/18 27/19/18 25/18/18
